<svg width="32" height="32" viewBox="0 0 32 32" fill="none" xmlns="http://www.w3.org/2000/svg">
<g id="Checkmark">
<path id="Vector" d="M16 1.28027C7.88291 1.28027 1.28003 7.88315 1.28003 16.0003C1.28003 24.1174 7.88291 30.7203 16 30.7203C24.1171 30.7203 30.72 24.1174 30.72 16.0003C30.72 13.0819 29.8626 10.3614 28.3925 8.07152L27.5163 9.10652C28.7291 11.1251 29.44 13.4787 29.44 16.0003C29.44 23.4108 23.4106 29.4403 16 29.4403C8.58947 29.4403 2.56003 23.4108 2.56003 16.0003C2.56003 8.58971 8.58947 2.56027 16 2.56027C19.4835 2.56027 22.6521 3.90412 25.0425 6.08652L25.88 5.09777C23.2656 2.72657 19.7984 1.28027 16 1.28027ZM27.6713 4.96277L15.305 19.5553L10.1 14.7003L9.22753 15.6365L15.4138 21.4065L28.6488 5.79027L27.6713 4.96277Z" fill="black"/>
</g>
</svg>
