<svg width="93" height="92" viewBox="0 0 93 92" fill="none" xmlns="http://www.w3.org/2000/svg">
<path d="M67.375 0.000367034C66.9219 0.062867 66.5 0.289429 66.1875 0.625367L14.1875 52.5629C13.9922 52.7816 13.836 53.0316 13.75 53.3129L0.125039 89.3129C-0.140585 90.0394 0.0391009 90.8597 0.593789 91.4066C1.14066 91.9613 1.96098 92.141 2.68754 91.8754L38.6875 78.2504C38.9688 78.1644 39.2188 78.0082 39.4375 77.8129L42 75.2504C42.4766 75.0472 42.8594 74.6644 43.0625 74.1879L91.375 25.8129C91.9688 25.3285 92.2422 24.5551 92.0704 23.8051C91.8985 23.0629 91.3125 22.4769 90.5704 22.3051C89.8204 22.1332 89.0469 22.4066 88.5625 23.0004L40.6875 70.8129C39.25 70.1488 37.0547 69.4066 34.25 69.5004C34.5782 68.6097 35.0704 68.0785 35.25 67.0004C35.6875 64.3988 35.4532 61.2035 33.125 58.8754C30.7891 56.5394 27.5704 56.3207 24.9375 56.8129C24.0079 56.9847 23.5547 57.4613 22.75 57.7504C22.7813 57.4691 22.8672 57.4222 22.875 57.1254C22.9219 55.391 22.5157 53.2426 21.1875 51.3129L69 3.43787C69.5938 2.86755 69.7735 1.98474 69.4532 1.22693C69.1407 0.469117 68.3829 -0.015257 67.5625 0.000367034C67.5 0.000367034 67.4375 0.000367034 67.375 0.000367034ZM18.1875 54.3129C18.6875 55.2269 18.8985 56.1176 18.875 57.0004C18.8438 58.3597 18.4063 59.5316 18.125 60.3129C17.8204 61.1566 18.1094 62.0941 18.836 62.6176C19.5625 63.141 20.5469 63.1176 21.25 62.5629C21.8204 62.1176 23.7266 61.1019 25.625 60.7504C27.5235 60.3988 29.211 60.5863 30.3125 61.6879C31.4219 62.7972 31.6329 64.4926 31.3125 66.3754C30.9922 68.2582 30.0079 70.1644 29.625 70.6879C29.0704 71.391 29.0469 72.3754 29.5704 73.1019C30.0938 73.8285 31.0313 74.1176 31.875 73.8129C34.4141 73.0394 36.3907 73.3129 37.75 73.7504L36.8125 74.6879L14.75 83.0629L9.00004 77.2504L17.3125 55.1879L18.1875 54.3129Z" fill="black"/>
</svg>
