<svg width="176" height="48" viewBox="0 0 176 48" fill="none" xmlns="http://www.w3.org/2000/svg">
<path d="M5.5 39V15H43.5V39C43.5 41.209 41.709 43 39.5 43H9.5C7.291 43 5.5 41.209 5.5 39Z" fill="#DCEDC8"/>
<path d="M43.5 11V17H5.5V11C5.5 8.791 7.291 7 9.5 7H39.5C41.709 7 43.5 8.791 43.5 11Z" fill="#4CAF50"/>
<path d="M36.5 11C36.5 12.657 35.157 14 33.5 14C31.843 14 30.5 12.657 30.5 11C30.5 9.343 31.843 8 33.5 8C35.157 8 36.5 9.343 36.5 11ZM18.5 11C18.5 12.657 17.157 14 15.5 14C13.843 14 12.5 12.657 12.5 11C12.5 9.343 13.843 8 15.5 8C17.157 8 18.5 9.343 18.5 11Z" fill="#2E7D32"/>
<path d="M33.5 4C32.396 4 31.5 4.896 31.5 6V11C31.5 12.104 32.396 13 33.5 13C34.604 13 35.5 12.104 35.5 11V6C35.5 4.896 34.604 4 33.5 4ZM15.5 4C14.396 4 13.5 4.896 13.5 6V11C13.5 12.104 14.396 13 15.5 13C16.604 13 17.5 12.104 17.5 11V6C17.5 4.896 16.604 4 15.5 4Z" fill="#08203A"/>
<path d="M32.24 22.0591L23.256 31.0551L18.971 26.7791L16.5 29.2561L23.26 36.0001L34.715 24.5311L32.24 22.0591Z" fill="#08203A"/>
<path d="M60.82 23.212H69.7V24.724H60.82V23.212ZM61.012 30.964H71.116V32.5H59.236V15.7H70.756V17.236H61.012V30.964ZM77.9129 32.5L72.3209 19.9H74.0969L79.2329 31.588H78.3929L83.6009 19.9H85.2809L79.6649 32.5H77.9129ZM92.6811 32.62C91.3691 32.62 90.2171 32.348 89.2251 31.804C88.2331 31.244 87.4571 30.484 86.8971 29.524C86.3371 28.548 86.0571 27.436 86.0571 26.188C86.0571 24.94 86.3211 23.836 86.8491 22.876C87.3931 21.916 88.1291 21.164 89.0571 20.62C90.0011 20.06 91.0571 19.78 92.2251 19.78C93.4091 19.78 94.4571 20.052 95.3691 20.596C96.2971 21.124 97.0251 21.876 97.5531 22.852C98.0811 23.812 98.3451 24.924 98.3451 26.188C98.3451 26.268 98.3371 26.356 98.3211 26.452C98.3211 26.532 98.3211 26.62 98.3211 26.716H87.3531V25.444H97.4091L96.7371 25.948C96.7371 25.036 96.5371 24.228 96.1371 23.524C95.7531 22.804 95.2251 22.244 94.5531 21.844C93.8811 21.444 93.1051 21.244 92.2251 21.244C91.3611 21.244 90.5851 21.444 89.8971 21.844C89.2091 22.244 88.6731 22.804 88.2891 23.524C87.9051 24.244 87.7131 25.068 87.7131 25.996V26.26C87.7131 27.22 87.9211 28.068 88.3371 28.804C88.7691 29.524 89.3611 30.092 90.1131 30.508C90.8811 30.908 91.7531 31.108 92.7291 31.108C93.4971 31.108 94.2091 30.972 94.8651 30.7C95.5371 30.428 96.1131 30.012 96.5931 29.452L97.5531 30.556C96.9931 31.228 96.2891 31.74 95.4411 32.092C94.6091 32.444 93.6891 32.62 92.6811 32.62ZM108.246 19.78C109.27 19.78 110.166 19.98 110.934 20.38C111.718 20.764 112.326 21.356 112.758 22.156C113.206 22.956 113.43 23.964 113.43 25.18V32.5H111.726V25.348C111.726 24.02 111.39 23.02 110.718 22.348C110.062 21.66 109.134 21.316 107.934 21.316C107.038 21.316 106.254 21.5 105.582 21.868C104.926 22.22 104.414 22.74 104.046 23.428C103.694 24.1 103.518 24.916 103.518 25.876V32.5H101.814V19.9H103.446V23.356L103.182 22.708C103.582 21.796 104.222 21.084 105.102 20.572C105.982 20.044 107.03 19.78 108.246 19.78ZM122.016 32.62C120.832 32.62 119.92 32.3 119.28 31.66C118.64 31.02 118.32 30.116 118.32 28.948V17.116H120.024V28.852C120.024 29.588 120.208 30.156 120.576 30.556C120.96 30.956 121.504 31.156 122.208 31.156C122.96 31.156 123.584 30.94 124.08 30.508L124.68 31.732C124.344 32.036 123.936 32.26 123.456 32.404C122.992 32.548 122.512 32.62 122.016 32.62ZM116.064 21.316V19.9H123.864V21.316H116.064ZM131.736 32.5L139.416 15.7H141.168L148.848 32.5H146.976L139.92 16.732H140.64L133.584 32.5H131.736ZM134.76 28.012L135.288 26.572H145.056L145.584 28.012H134.76ZM151.267 32.5V14.692H152.971V32.5H151.267ZM157.712 32.5V14.692H159.416V32.5H157.712ZM164.253 37.276C163.661 37.276 163.093 37.18 162.549 36.988C162.021 36.796 161.565 36.508 161.181 36.124L161.973 34.852C162.293 35.156 162.637 35.388 163.005 35.548C163.389 35.724 163.813 35.812 164.277 35.812C164.837 35.812 165.317 35.652 165.717 35.332C166.133 35.028 166.525 34.484 166.893 33.7L167.709 31.852L167.901 31.588L173.085 19.9H174.765L168.453 34.012C168.101 34.828 167.709 35.476 167.277 35.956C166.861 36.436 166.405 36.772 165.909 36.964C165.413 37.172 164.861 37.276 164.253 37.276ZM167.613 32.86L161.805 19.9H163.581L168.717 31.468L167.613 32.86Z" fill="#343A40"/>
</svg>
