<svg width="32" height="32" viewBox="0 0 32 32" fill="none" xmlns="http://www.w3.org/2000/svg">
<g id="Trash Can">
<path id="Vector" d="M13.44 1.28027C12.3869 1.28027 11.52 2.14718 11.52 3.20027V4.48027H6.49875C6.46282 4.47427 6.42643 4.47134 6.39 4.47152C6.359 4.4722 6.32808 4.47512 6.2975 4.48027H5.12C5.03519 4.47907 4.95099 4.49474 4.87229 4.52637C4.79359 4.55799 4.72196 4.60494 4.66157 4.66449C4.60117 4.72404 4.55321 4.795 4.52048 4.87324C4.48774 4.95149 4.47089 5.03546 4.47089 5.12027C4.47089 5.20509 4.48774 5.28906 4.52048 5.3673C4.55321 5.44555 4.60117 5.51651 4.66157 5.57606C4.72196 5.6356 4.79359 5.68256 4.87229 5.71418C4.95099 5.7458 5.03519 5.76147 5.12 5.76027H5.76V28.8003C5.76 29.8534 6.62691 30.7203 7.68 30.7203H24.32C25.3731 30.7203 26.24 29.8534 26.24 28.8003V5.76027H26.88C26.9648 5.76147 27.049 5.7458 27.1277 5.71418C27.2064 5.68256 27.278 5.6356 27.3384 5.57606C27.3988 5.51651 27.4468 5.44555 27.4795 5.3673C27.5123 5.28906 27.5291 5.20509 27.5291 5.12027C27.5291 5.03546 27.5123 4.95149 27.4795 4.87324C27.4468 4.795 27.3988 4.72404 27.3384 4.66449C27.278 4.60494 27.2064 4.55799 27.1277 4.52637C27.049 4.49474 26.9648 4.47907 26.88 4.48027H25.7075C25.6384 4.46885 25.5679 4.46885 25.4988 4.48027H20.48V3.20027C20.48 2.14718 19.6131 1.28027 18.56 1.28027H13.44ZM13.44 2.56027H18.56C18.9149 2.56027 19.2 2.84536 19.2 3.20027V4.48027H12.8V3.20027C12.8 2.84536 13.0851 2.56027 13.44 2.56027ZM7.04 5.76027H12.0525C12.1216 5.7717 12.1921 5.7717 12.2613 5.76027H19.7325C19.8016 5.7717 19.8721 5.7717 19.9413 5.76027H24.96V28.8003C24.96 29.1552 24.6749 29.4403 24.32 29.4403H7.68C7.32509 29.4403 7.04 29.1552 7.04 28.8003V5.76027ZM12.15 8.95152C11.9805 8.95417 11.8189 9.02397 11.7008 9.1456C11.5827 9.26723 11.5177 9.43075 11.52 9.60027V25.6003C11.5188 25.6851 11.5345 25.7693 11.5661 25.848C11.5977 25.9267 11.6447 25.9983 11.7042 26.0587C11.7638 26.1191 11.8347 26.1671 11.913 26.1998C11.9912 26.2325 12.0752 26.2494 12.16 26.2494C12.2448 26.2494 12.3288 26.2325 12.407 26.1998C12.4853 26.1671 12.5562 26.1191 12.6158 26.0587C12.6753 25.9983 12.7223 25.9267 12.7539 25.848C12.7855 25.7693 12.8012 25.6851 12.8 25.6003V9.60027C12.8012 9.51465 12.7852 9.42966 12.7529 9.35034C12.7206 9.27101 12.6728 9.19897 12.6122 9.13848C12.5515 9.07799 12.4794 9.03027 12.4 8.99816C12.3206 8.96604 12.2356 8.95019 12.15 8.95152ZM15.99 8.95152C15.8205 8.95417 15.6589 9.02397 15.5408 9.1456C15.4227 9.26723 15.3577 9.43075 15.36 9.60027V25.6003C15.3588 25.6851 15.3745 25.7693 15.4061 25.848C15.4377 25.9267 15.4847 25.9983 15.5442 26.0587C15.6038 26.1191 15.6747 26.1671 15.753 26.1998C15.8312 26.2325 15.9152 26.2494 16 26.2494C16.0848 26.2494 16.1688 26.2325 16.247 26.1998C16.3253 26.1671 16.3962 26.1191 16.4558 26.0587C16.5153 25.9983 16.5623 25.9267 16.5939 25.848C16.6255 25.7693 16.6412 25.6851 16.64 25.6003V9.60027C16.6412 9.51465 16.6252 9.42966 16.5929 9.35034C16.5606 9.27101 16.5128 9.19897 16.4522 9.13848C16.3915 9.07799 16.3194 9.03027 16.24 8.99816C16.1606 8.96604 16.0756 8.95019 15.99 8.95152ZM19.83 8.95152C19.6605 8.95417 19.4989 9.02397 19.3808 9.1456C19.2627 9.26723 19.1977 9.43075 19.2 9.60027V25.6003C19.1988 25.6851 19.2145 25.7693 19.2461 25.848C19.2777 25.9267 19.3247 25.9983 19.3842 26.0587C19.4438 26.1191 19.5147 26.1671 19.593 26.1998C19.6712 26.2325 19.7552 26.2494 19.84 26.2494C19.9248 26.2494 20.0088 26.2325 20.087 26.1998C20.1653 26.1671 20.2362 26.1191 20.2958 26.0587C20.3553 25.9983 20.4023 25.9267 20.4339 25.848C20.4655 25.7693 20.4812 25.6851 20.48 25.6003V9.60027C20.4812 9.51465 20.4652 9.42966 20.4329 9.35034C20.4006 9.27101 20.3528 9.19897 20.2922 9.13848C20.2315 9.07799 20.1594 9.03027 20.08 8.99816C20.0006 8.96604 19.9156 8.95019 19.83 8.95152Z" fill="black"/>
</g>
</svg>
