<svg width="32" height="32" viewBox="0 0 32 32" fill="none" xmlns="http://www.w3.org/2000/svg">
<g id="View">
<path id="Vector" d="M2.56 0V30.72H17.92C18.15 30.7225 18.365 30.6025 18.4825 30.4025C18.5975 30.2025 18.5975 29.9575 18.4825 29.7575C18.365 29.5575 18.15 29.4375 17.92 29.44H3.84V1.28H15.36V10.24H24.32V14.72C24.3175 14.95 24.4375 15.165 24.6375 15.2825C24.8375 15.3975 25.0825 15.3975 25.2825 15.2825C25.4825 15.165 25.6025 14.95 25.6 14.72V9.34L25.42 9.14L16.46 0.18L16.26 0H2.56ZM16.64 2.2L23.4 8.96H16.64V2.2ZM23.04 16.64C19.5125 16.64 16.64 19.5125 16.64 23.04C16.64 26.5675 19.5125 29.44 23.04 29.44C24.5725 29.44 25.9775 28.9025 27.08 28L30.9 31.82L31.82 30.9L28 27.08C28.9025 25.9775 29.44 24.5725 29.44 23.04C29.44 19.5125 26.5675 16.64 23.04 16.64ZM23.04 17.92C25.875 17.92 28.16 20.205 28.16 23.04C28.16 25.875 25.875 28.16 23.04 28.16C20.205 28.16 17.92 25.875 17.92 23.04C17.92 20.205 20.205 17.92 23.04 17.92Z" fill="black"/>
</g>
</svg>
